Simulation
nRows=23
nColumns=15
endheader
time  TH_x TH_y TH_z SC_y  SC_z  SC_x  AC_y  AC_z  AC_x  GH_y  GH_z  GH_yy  EL_x  PS_y
0.0  0.000000  0.000000  0.000000  -29.088562162170287  -0.7777504846625208  -1.9545818034326115  55.90532963790382  8.331218794165121  -6.859421971277014  32.66230428226395  16.24735821317833  8.045910144598038  27.112545034866297  0.000000
0.038999999999999986  0.000000  0.000000  0.000000  -28.782938485834205  -0.5879416421722425  -2.092691477146731  55.60754249541021  8.371739568667296  -6.801364743201719  32.68522455987024  16.476518312498385  7.917849606371015  26.70562502530152  0.000000
0.07799999999999997  0.000000  0.000000  0.000000  -28.511121103046037  -0.47306987950926466  -2.316051744308077  55.310867083481355  8.37494076013662  -6.7532477152393815  32.614996859222465  16.625578728300383  7.895825543047355  26.290637967911533  0.000000
0.11699999999999997  0.000000  0.000000  0.000000  -28.270883924781405  -0.43024321235530677  -2.617374913407404  55.05949186892859  8.39713948128355  -6.681880919027196  32.57522520736347  16.770807376543058  7.8202112079651585  25.894681555198762  0.000000
0.15599999999999994  0.000000  0.000000  0.000000  -28.06618189140425  -0.4512922708780046  -2.9671980887347593  54.89520171126514  8.470766619656676  -6.5722795007443775  32.72182532286081  17.00135236732207  7.469398301438889  25.537007358495256  0.000000
0.19499999999999992  0.000000  0.000000  0.000000  -27.913815113215865  -0.5138323696467978  -3.31426486184526  54.84488511131972  8.601247312012852  -6.42092274860102  33.21210941351734  17.40061811017423  6.628614452342776  25.236999058228687  0.000000
0.23399999999999993  0.000000  0.000000  0.000000  -27.823375499455487  -0.591199102206266  -3.609454414077567  54.91156312487301  8.783187470332372  -6.23830422721821  34.16719055219939  18.033798720679407  5.12848946290072  25.007079321086756  0.000000
0.2729999999999999  0.000000  0.000000  0.000000  -27.800890780903003  -0.6616634511853045  -3.8106353517386062  55.08461001151975  9.001768375268487  -6.04372956585811  35.61398248743095  18.946440114588306  2.912338178605957  24.848022145013406  0.000000
0.3119999999999999  0.000000  0.000000  0.000000  -27.835245726215206  -0.7100138688229102  -3.8871063645134356  55.343565182612146  9.237023452063447  -5.859371104210347  37.47020696519291  20.159520080497867  0.046797573023747645  24.752782126181284  0.000000
0.35099999999999987  0.000000  0.000000  0.000000  -27.900741680909352  -0.7284408506653369  -3.818286789879403  55.66877591988982  9.468815983152743  -5.704563530672533  39.55888080379867  21.667685459230505  -3.284792473663165  24.714195372733503  0.000000
0.38999999999999985  0.000000  0.000000  0.000000  -27.960064266429757  -0.7159275387421309  -3.5918768211950036  56.04141754596723  9.68168949908276  -5.595993755481436  41.67230693624725  23.439210330152942  -6.851652270324916  24.728184652306176  0.000000
0.4289999999999998  0.000000  0.000000  0.000000  -27.976276137510457  -0.677136540949125  -3.2024743797100133  56.446947275610505  9.869453443349085  -5.547025599340802  43.63266762744068  25.42121587220524  -10.436375338221783  24.789551479047883  0.000000
0.46799999999999986  0.000000  0.000000  0.000000  -27.92285675909832  -0.6165552854468692  -2.6487141366675693  56.871962587814885  10.032190284665221  -5.566792885875763  45.33650690831539  27.549612723084223  -13.888752756380336  24.890507832224955  0.000000
0.5069999999999998  0.000000  0.000000  0.000000  -27.790532167837735  -0.5366226689268508  -1.929254613199304  57.30509057845212  10.17078328780167  -5.661235424676961  46.76040584661939  29.761225766092345  -17.140419125038907  25.013931557743103  0.000000
0.5459999999999998  0.000000  0.000000  0.000000  -27.588261060652503  -0.4376220914024625  -1.0426173955024343  57.73415673684204  10.284098411652389  -5.834277376440308  47.94256042916627  32.00314055559876  -20.195204076241208  25.136813804023333  0.000000
0.5849999999999997  0.000000  0.000000  0.000000  -27.341966012589175  -0.31711802981306914  0.010717065165565282  58.14521709844968  10.367818153377131  -6.08715671893844  48.957778159602185  34.23756638668297  -23.108522249837726  25.238407650743742  0.000000
0.6239999999999998  0.000000  0.000000  0.000000  -27.08805450591158  -0.17191413048304932  1.2256365299816667  58.523726650422674  10.415386042522044  -6.4170548724284915  49.889700704727396  36.442563378794  -25.957487000294503  25.304584454834803  0.000000
0.6629999999999998  0.000000  0.000000  0.000000  -26.8613401862553  0.0008636030055258689  2.5914419934508524  58.85897871314599  10.421048448147422  -6.815518448987911  50.80384794543145  38.60794894543908  -28.804372633586595  25.328074821850358  0.000000
0.7019999999999997  0.000000  0.000000  0.000000  -26.682475008431872  0.20300648306806893  4.093492605430994  59.14842383671782  10.382718133031842  -7.26697548345408  51.727231392636  40.72772060301735  -31.66176283218369  25.30587539647745  0.000000
0.7409999999999998  0.000000  0.000000  0.000000  -26.55125952653109  0.4346454376523379  5.71496209012311  59.39912203176679  10.302757903537712  -7.749114530230267  52.642081865802744  42.792880783174304  -34.47926658692096  25.237647460991347  0.000000
0.7799999999999997  0.000000  0.000000  0.000000  -26.452353782173965  0.6945266001530477  7.436012906362912  59.62533692691602  10.186313806175086  -8.233411376945835  53.4969128210746  44.787552854645014  -37.158675770455936  25.12663812347667  0.000000
0.8189999999999997  0.000000  0.000000  0.000000  -26.368151899837034  0.980902953668178  9.228810869434215  59.84354151795414  10.03844606656453  -8.685807312540899  54.226695086182296  46.69072193946058  -39.5899370521927  24.982668563056436  0.000000
0.8579999999999997  0.000000  0.000000  0.000000  -26.290622515781692  1.292493340142797  11.052376971102406  60.06861927378012  9.863006635996845  -9.067635719493538  54.77119642240896  48.48100569577768  -41.685088624071156  24.82329434269649  0.000000
